<mxfile host="app.diagrams.net" modified="2023-09-26T01:42:27.814Z" agent="Mozilla/5.0 (Windows NT 10.0; Win64; x64) AppleWebKit/537.36 (KHTML, like Gecko) Chrome/116.0.0.0 Safari/537.36" etag="6tcwfsd8nZTqqjlQsxnj" version="21.8.2" type="device">
  <diagram name="Página-1" id="jOkZqkd658S6yTRsiWwZ">
    <mxGraphModel dx="1114" dy="610" grid="1" gridSize="10" guides="1" tooltips="1" connect="1" arrows="1" fold="1" page="1" pageScale="1" pageWidth="827" pageHeight="1169" math="0" shadow="0">
      <root>
        <mxCell id="0" />
        <mxCell id="1" parent="0" />
        <mxCell id="d3FWjFHockMTkBHgAvQU-5" value="" style="edgeStyle=orthogonalEdgeStyle;rounded=0;orthogonalLoop=1;jettySize=auto;html=1;" edge="1" parent="1" source="d3FWjFHockMTkBHgAvQU-1" target="d3FWjFHockMTkBHgAvQU-3">
          <mxGeometry relative="1" as="geometry" />
        </mxCell>
        <mxCell id="d3FWjFHockMTkBHgAvQU-1" value="inicio&lt;br&gt;" style="strokeWidth=2;html=1;shape=mxgraph.flowchart.terminator;whiteSpace=wrap;" vertex="1" parent="1">
          <mxGeometry x="330" y="10" width="100" height="60" as="geometry" />
        </mxCell>
        <mxCell id="d3FWjFHockMTkBHgAvQU-8" value="" style="edgeStyle=orthogonalEdgeStyle;rounded=0;orthogonalLoop=1;jettySize=auto;html=1;" edge="1" parent="1" source="d3FWjFHockMTkBHgAvQU-2" target="d3FWjFHockMTkBHgAvQU-7">
          <mxGeometry relative="1" as="geometry" />
        </mxCell>
        <mxCell id="d3FWjFHockMTkBHgAvQU-2" value="numero1&lt;br&gt;numero2" style="html=1;strokeWidth=2;shape=manualInput;whiteSpace=wrap;rounded=1;size=26;arcSize=11;" vertex="1" parent="1">
          <mxGeometry x="220" y="280" width="300" height="140" as="geometry" />
        </mxCell>
        <mxCell id="d3FWjFHockMTkBHgAvQU-6" value="" style="edgeStyle=orthogonalEdgeStyle;rounded=0;orthogonalLoop=1;jettySize=auto;html=1;" edge="1" parent="1" source="d3FWjFHockMTkBHgAvQU-3" target="d3FWjFHockMTkBHgAvQU-2">
          <mxGeometry relative="1" as="geometry" />
        </mxCell>
        <mxCell id="d3FWjFHockMTkBHgAvQU-3" value="digite o primeiro numero&lt;br&gt;digite o segundo numero" style="strokeWidth=2;html=1;shape=mxgraph.flowchart.display;whiteSpace=wrap;" vertex="1" parent="1">
          <mxGeometry x="220" y="100" width="290" height="130" as="geometry" />
        </mxCell>
        <mxCell id="d3FWjFHockMTkBHgAvQU-10" style="edgeStyle=orthogonalEdgeStyle;rounded=0;orthogonalLoop=1;jettySize=auto;html=1;entryX=1;entryY=0.5;entryDx=0;entryDy=0;" edge="1" parent="1" source="d3FWjFHockMTkBHgAvQU-7" target="d3FWjFHockMTkBHgAvQU-9">
          <mxGeometry relative="1" as="geometry">
            <mxPoint x="670" y="886" as="targetPoint" />
            <Array as="points">
              <mxPoint x="660" y="535" />
              <mxPoint x="660" y="760" />
            </Array>
          </mxGeometry>
        </mxCell>
        <mxCell id="d3FWjFHockMTkBHgAvQU-11" value="" style="edgeStyle=orthogonalEdgeStyle;rounded=0;orthogonalLoop=1;jettySize=auto;html=1;" edge="1" parent="1" source="d3FWjFHockMTkBHgAvQU-7" target="d3FWjFHockMTkBHgAvQU-9">
          <mxGeometry relative="1" as="geometry" />
        </mxCell>
        <mxCell id="d3FWjFHockMTkBHgAvQU-7" value="numero1&amp;gt;numero2&lt;br&gt;ou&lt;br&gt;numero2&amp;gt;numero1" style="strokeWidth=2;html=1;shape=mxgraph.flowchart.decision;whiteSpace=wrap;" vertex="1" parent="1">
          <mxGeometry x="240" y="470" width="190" height="130" as="geometry" />
        </mxCell>
        <mxCell id="d3FWjFHockMTkBHgAvQU-9" value="numero1=10&lt;br&gt;numero2=20" style="rounded=1;whiteSpace=wrap;html=1;absoluteArcSize=1;arcSize=14;strokeWidth=2;" vertex="1" parent="1">
          <mxGeometry x="240" y="720" width="180" height="100" as="geometry" />
        </mxCell>
        <mxCell id="d3FWjFHockMTkBHgAvQU-12" value="&lt;span style=&quot;color: rgb(0, 0, 0); font-family: Helvetica; font-size: 22px; font-style: normal; font-variant-ligatures: normal; font-variant-caps: normal; font-weight: 400; letter-spacing: normal; orphans: 2; text-align: center; text-indent: 0px; text-transform: none; widows: 2; word-spacing: 0px; -webkit-text-stroke-width: 0px; background-color: rgb(251, 251, 251); text-decoration-thickness: initial; text-decoration-style: initial; text-decoration-color: initial; float: none; display: inline !important;&quot;&gt;v&lt;/span&gt;" style="text;whiteSpace=wrap;html=1;fontSize=22;" vertex="1" parent="1">
          <mxGeometry x="240" y="660" width="40" height="40" as="geometry" />
        </mxCell>
        <mxCell id="d3FWjFHockMTkBHgAvQU-14" value="&lt;span style=&quot;color: rgb(0, 0, 0); font-family: Helvetica; font-size: 22px; font-style: normal; font-variant-ligatures: normal; font-variant-caps: normal; font-weight: 400; letter-spacing: normal; orphans: 2; text-align: center; text-indent: 0px; text-transform: none; widows: 2; word-spacing: 0px; -webkit-text-stroke-width: 0px; background-color: rgb(251, 251, 251); text-decoration-thickness: initial; text-decoration-style: initial; text-decoration-color: initial; float: none; display: inline !important;&quot;&gt;F&lt;/span&gt;" style="text;whiteSpace=wrap;html=1;fontSize=22;" vertex="1" parent="1">
          <mxGeometry x="600" y="490" width="40" height="40" as="geometry" />
        </mxCell>
        <mxCell id="d3FWjFHockMTkBHgAvQU-15" value="20 é maior que 10" style="strokeWidth=2;html=1;shape=mxgraph.flowchart.display;whiteSpace=wrap;" vertex="1" parent="1">
          <mxGeometry x="230" y="840" width="200" height="190" as="geometry" />
        </mxCell>
      </root>
    </mxGraphModel>
  </diagram>
</mxfile>
